<svg xmlns="http://www.w3.org/2000/svg" version="1.1" xmlns:xlink="http://www.w3.org/1999/xlink" width="1000" height="1000"><g clip-path="url(#SvgjsClipPath1003)"><rect width="1000" height="1000" fill="#ffffff"></rect><g transform="matrix(3.5,0,0,3.5,150,150)"><svg xmlns="http://www.w3.org/2000/svg" version="1.1" xmlns:xlink="http://www.w3.org/1999/xlink" width="200" height="200"><svg xmlns="http://www.w3.org/2000/svg" version="1.1" xmlns:xlink="http://www.w3.org/1999/xlink" viewBox="0 0 200 200"><rect width="200" height="200" fill="url('#gradient')"></rect><defs><linearGradient id="gradient" gradientTransform="rotate(45 0.5 0.5)"><stop offset="0%" stop-color="#dee90b"></stop><stop offset="100%" stop-color="#d9e241"></stop></linearGradient><clipPath id="SvgjsClipPath1003"><rect width="1000" height="1000" x="0" y="0" rx="350" ry="350"></rect></clipPath></defs><g><g fill="#1b3855" transform="matrix(3.4177637678472093,0,0,3.4177637678472093,6.7631310448009145,118.04899517362068)" stroke="#0e5278" stroke-width="0.2"><path d="M0.95-10.57L4.03-10.57L4.14-9.33Q5.26-10.76 7.16-10.76L7.16-10.76Q9.16-10.76 9.86-9.17L9.86-9.17Q10.94-10.76 12.97-10.76L12.97-10.76Q16.18-10.76 16.27-6.88L16.27-6.88L16.27 0L12.97 0L12.97-6.67Q12.97-7.48 12.70-7.85Q12.42-8.22 11.70-8.22L11.70-8.22Q10.72-8.22 10.24-7.35L10.24-7.35L10.25-7.22L10.25 0L6.95 0L6.95-6.65Q6.95-7.48 6.69-7.85Q6.43-8.22 5.68-8.22L5.68-8.22Q4.74-8.22 4.24-7.35L4.24-7.35L4.24 0L0.95 0L0.95-10.57ZM23.26 0.20L23.26 0.20Q20.83 0.20 19.33-1.25Q17.82-2.71 17.82-5.03L17.82-5.03L17.82-5.30Q17.82-6.92 18.42-8.16Q19.02-9.40 20.18-10.08Q21.33-10.76 22.91-10.76L22.91-10.76Q25.14-10.76 26.43-9.38Q27.71-8.00 27.71-5.53L27.71-5.53L27.71-4.25L21.17-4.25Q21.35-3.36 21.94-2.85Q22.54-2.34 23.49-2.34L23.49-2.34Q25.05-2.34 25.93-3.44L25.93-3.44L27.43-1.66Q26.82-0.81 25.69-0.31Q24.56 0.20 23.26 0.20ZM22.89-8.22L22.89-8.22Q21.45-8.22 21.17-6.31L21.17-6.31L24.49-6.31L24.49-6.56Q24.51-7.35 24.09-7.79Q23.67-8.22 22.89-8.22ZM28.63-4.82L28.62-5.38Q28.62-6.96 29.24-8.20Q29.85-9.43 31.01-10.10Q32.16-10.76 33.71-10.76L33.71-10.76Q36.08-10.76 37.45-9.29Q38.82-7.82 38.82-5.29L38.82-5.29L38.82-5.18Q38.82-2.71 37.45-1.25Q36.07 0.20 33.73 0.20L33.73 0.20Q31.47 0.20 30.11-1.16Q28.74-2.51 28.63-4.82L28.63-4.82ZM31.92-5.77L31.91-5.18Q31.91-3.71 32.37-3.03Q32.83-2.34 33.73-2.34L33.73-2.34Q35.49-2.34 35.53-5.05L35.53-5.05L35.53-5.38Q35.53-8.22 33.71-8.22L33.71-8.22Q32.06-8.22 31.92-5.77L31.92-5.77ZM47.73-10.57L49.39-4.34L50.46-10.57L53.61-10.57L51.12 0L48.34 0L46.59-6.27L44.83 0L42.05 0L39.56-10.57L42.71-10.57L43.76-4.19L45.44-10.57L47.73-10.57Z"></path></g></g></svg></svg></g></g></svg>